<svg xmlns="http://www.w3.org/2000/svg" xmlns:xlink="http://www.w3.org/1999/xlink" width="500" zoomAndPan="magnify" viewBox="0 0 375 374.999991" height="500" preserveAspectRatio="xMidYMid meet" version="1.0"><defs><g/><clipPath id="ae1672d619"><path d="M 144.523438 119.824219 L 230.773438 119.824219 L 230.773438 206.074219 L 144.523438 206.074219 Z M 144.523438 119.824219 " clip-rule="nonzero"/></clipPath></defs><g fill="#fffdfd" fill-opacity="1"><g transform="translate(150.882394, 245.052556)"><g><path d="M 12.84375 0 L 6.28125 -7.578125 L 6.28125 0 L 1.6875 0 L 1.6875 -15.625 L 6.0625 -15.625 L 12.625 -7.921875 L 12.625 -15.625 L 17.234375 -15.625 L 17.234375 0 Z M 12.84375 0 "/></g></g></g><g fill="#fffdfd" fill-opacity="1"><g transform="translate(170.243851, 245.052556)"><g><path d="M 1.6875 -15.625 L 15.1875 -15.625 L 15.1875 -11.875 L 6.703125 -11.875 L 6.703125 -9.71875 L 13.96875 -9.71875 L 13.96875 -6.125 L 6.703125 -6.125 L 6.703125 -3.75 L 15.34375 -3.75 L 15.34375 0 L 1.6875 0 Z M 1.6875 -15.625 "/></g></g></g><g fill="#fffdfd" fill-opacity="1"><g transform="translate(187.085835, 245.052556)"><g><path d="M 17.65625 0 L 11.578125 0 L 8.703125 -4.859375 L 8.609375 -4.859375 L 5.71875 0 L 0.09375 0 L 5.671875 -8.265625 L 0.640625 -15.625 L 6.703125 -15.625 L 9.0625 -11.625 L 9.15625 -11.625 L 11.53125 -15.625 L 17.140625 -15.625 L 12.078125 -8.234375 Z M 17.65625 0 "/></g></g></g><g fill="#fffdfd" fill-opacity="1"><g transform="translate(205.1989, 245.052556)"><g><path d="M 17.234375 -6.28125 C 17.234375 -4.15625 16.554688 -2.53125 15.203125 -1.40625 C 13.859375 -0.289062 11.945312 0.265625 9.46875 0.265625 C 6.988281 0.265625 5.070312 -0.289062 3.71875 -1.40625 C 2.363281 -2.53125 1.6875 -4.15625 1.6875 -6.28125 L 1.6875 -15.625 L 6.703125 -15.625 L 6.703125 -6.359375 C 6.703125 -5.484375 6.9375 -4.78125 7.40625 -4.25 C 7.875 -3.726562 8.550781 -3.46875 9.4375 -3.46875 C 10.332031 -3.46875 11.019531 -3.734375 11.5 -4.265625 C 11.976562 -4.796875 12.21875 -5.492188 12.21875 -6.359375 L 12.21875 -15.625 L 17.234375 -15.625 Z M 17.234375 -6.28125 "/></g></g></g><g clip-path="url(#ae1672d619)"><path fill="#f24855" d="M 170.914062 195.527344 C 170.328125 195.234375 169.929688 194.613281 169.929688 193.921875 C 169.929688 189.042969 171.933594 184.609375 175.125 181.398438 C 175.605469 180.917969 176.175781 180.417969 176.726562 179.96875 C 177.488281 180.917969 178.109375 181.96875 178.554688 183.074219 C 178.226562 183.332031 177.933594 183.625 177.640625 183.917969 C 175.277344 186.28125 173.742188 189.4375 173.519531 192.941406 C 175.019531 193.785156 176.175781 194.320312 177.28125 194.476562 C 178.332031 194.613281 179.503906 194.40625 181.074219 193.855469 L 181.074219 187.867188 C 181.074219 183.96875 179.46875 180.417969 176.882812 177.863281 C 174.328125 175.277344 170.792969 173.707031 166.914062 173.707031 C 163.738281 173.707031 160.824219 174.757812 158.476562 176.484375 C 156.25 178.15625 154.527344 180.433594 153.578125 183.089844 C 155.285156 185.9375 157.339844 188.59375 159.667969 190.9375 C 166.824219 198.097656 176.746094 202.511719 187.664062 202.511719 C 190.285156 202.511719 192.855469 202.253906 195.410156 201.71875 C 197.601562 201.289062 199.722656 200.667969 201.828125 199.890625 L 201.828125 193.90625 C 201.828125 190.007812 200.222656 186.488281 197.632812 183.902344 C 195.082031 181.347656 191.546875 179.742188 187.664062 179.742188 C 186.578125 179.742188 185.542969 179.882812 184.523438 180.105469 C 184.042969 178.96875 183.4375 177.878906 182.730469 176.898438 C 184.300781 176.429688 185.9375 176.171875 187.664062 176.171875 C 190.40625 176.171875 193.027344 176.828125 195.359375 177.933594 C 196.824219 175.777344 198.753906 173.980469 200.980469 172.636719 C 203.636719 171.03125 206.742188 170.117188 210.039062 170.117188 C 213.574219 170.117188 216.902344 171.171875 219.679688 173 C 221.507812 174.207031 223.148438 175.742188 224.421875 177.554688 C 226.21875 172.980469 227.199219 167.996094 227.199219 162.925781 C 227.199219 152.003906 222.785156 142.121094 215.625 134.960938 C 208.46875 127.804688 198.582031 123.386719 187.664062 123.386719 C 176.746094 123.386719 166.824219 127.820312 159.667969 134.980469 C 152.507812 142.136719 148.09375 152.023438 148.09375 162.941406 C 148.09375 168.703125 149.335938 174.15625 151.523438 179.105469 C 152.734375 176.984375 154.40625 175.121094 156.371094 173.636719 C 159.355469 171.445312 162.980469 170.136719 166.929688 170.136719 C 171.8125 170.136719 176.210938 172.136719 179.417969 175.328125 C 182.628906 178.519531 184.609375 182.988281 184.609375 187.851562 L 184.609375 195.042969 C 184.609375 195.804688 184.128906 196.476562 183.4375 196.71875 C 180.730469 197.820312 178.796875 198.21875 176.832031 197.960938 C 174.933594 197.734375 173.242188 196.890625 170.914062 195.527344 Z M 166.929688 150.816406 C 169.1875 150.816406 171.207031 151.730469 172.691406 153.179688 C 174.15625 154.644531 175.070312 156.714844 175.070312 158.941406 C 175.070312 161.199219 174.15625 163.21875 172.691406 164.703125 C 171.226562 166.167969 169.1875 167.082031 166.929688 167.082031 C 164.703125 167.082031 162.652344 166.167969 161.167969 164.703125 C 159.703125 163.234375 158.804688 161.199219 158.804688 158.941406 C 158.804688 156.714844 159.683594 154.664062 161.167969 153.179688 C 162.632812 151.730469 164.703125 150.816406 166.929688 150.816406 Z M 170.171875 155.679688 C 169.363281 154.867188 168.207031 154.367188 166.929688 154.367188 C 165.6875 154.367188 164.550781 154.851562 163.6875 155.679688 C 162.875 156.523438 162.339844 157.679688 162.339844 158.921875 C 162.339844 160.199219 162.859375 161.335938 163.6875 162.164062 C 164.53125 162.976562 165.6875 163.511719 166.929688 163.511719 C 168.207031 163.511719 169.34375 162.992188 170.171875 162.164062 C 171 161.335938 171.519531 160.199219 171.519531 158.921875 C 171.5 157.679688 170.984375 156.523438 170.171875 155.679688 Z M 208.363281 150.816406 C 210.625 150.816406 212.640625 151.730469 214.125 153.179688 C 215.589844 154.644531 216.488281 156.714844 216.488281 158.941406 C 216.488281 161.199219 215.609375 163.21875 214.125 164.703125 C 212.660156 166.167969 210.625 167.082031 208.363281 167.082031 C 206.105469 167.082031 204.085938 166.167969 202.601562 164.703125 C 201.136719 163.234375 200.222656 161.199219 200.222656 158.941406 C 200.222656 156.714844 201.136719 154.664062 202.601562 153.179688 C 204.085938 151.730469 206.105469 150.816406 208.363281 150.816406 Z M 211.605469 155.679688 C 210.761719 154.867188 209.605469 154.367188 208.363281 154.367188 C 207.085938 154.367188 205.949219 154.851562 205.121094 155.679688 C 204.308594 156.523438 203.777344 157.679688 203.777344 158.921875 C 203.777344 160.199219 204.292969 161.335938 205.121094 162.164062 C 205.949219 162.992188 207.085938 163.511719 208.363281 163.511719 C 209.605469 163.511719 210.746094 162.992188 211.605469 162.164062 C 212.417969 161.355469 212.953125 160.199219 212.953125 158.921875 C 212.953125 157.679688 212.417969 156.523438 211.605469 155.679688 Z M 187.664062 156.730469 C 189.890625 156.730469 191.90625 157.644531 193.390625 159.113281 C 194.855469 160.578125 195.769531 162.613281 195.769531 164.875 C 195.769531 167.097656 194.855469 169.117188 193.390625 170.601562 C 191.925781 172.066406 189.890625 172.980469 187.664062 172.980469 C 185.402344 172.980469 183.386719 172.066406 181.902344 170.601562 C 180.4375 169.136719 179.523438 167.097656 179.523438 164.875 C 179.523438 162.613281 180.4375 160.597656 181.902344 159.113281 C 183.386719 157.644531 185.402344 156.730469 187.664062 156.730469 Z M 190.871094 161.632812 C 190.0625 160.820312 188.90625 160.285156 187.664062 160.285156 C 186.386719 160.285156 185.25 160.804688 184.421875 161.632812 C 183.574219 162.441406 183.074219 163.597656 183.074219 164.875 C 183.074219 166.117188 183.558594 167.253906 184.421875 168.082031 C 185.230469 168.929688 186.386719 169.429688 187.664062 169.429688 C 188.90625 169.429688 190.042969 168.945312 190.871094 168.082031 C 191.71875 167.273438 192.21875 166.117188 192.21875 164.875 C 192.21875 163.597656 191.71875 162.460938 190.871094 161.632812 Z M 198.359375 179.8125 C 199.015625 180.296875 199.601562 180.832031 200.152344 181.382812 C 203.363281 184.589844 205.34375 189.042969 205.34375 193.90625 L 205.34375 201.097656 C 205.34375 201.910156 204.828125 202.601562 204.070312 202.808594 C 201.480469 203.894531 198.808594 204.667969 196.117188 205.222656 C 193.339844 205.773438 190.492188 206.066406 187.648438 206.066406 C 175.710938 206.066406 164.945312 201.21875 157.132812 193.441406 C 149.367188 185.644531 144.523438 174.878906 144.523438 162.941406 C 144.523438 151.039062 149.367188 140.277344 157.148438 132.460938 C 164.964844 124.679688 175.726562 119.835938 187.664062 119.835938 C 199.566406 119.835938 210.332031 124.679688 218.144531 132.460938 C 225.925781 140.277344 230.773438 151.039062 230.773438 162.941406 C 230.773438 169.6875 229.203125 176.226562 226.285156 182.105469 C 226.21875 182.210938 226.183594 182.296875 226.132812 182.398438 C 225.992188 182.625 225.90625 182.867188 225.769531 183.089844 C 222.5625 189.214844 217.851562 194.542969 211.96875 198.5625 C 211.160156 199.117188 210.070312 198.890625 209.519531 198.097656 C 208.96875 197.285156 209.15625 196.164062 209.984375 195.613281 C 215.382812 191.921875 219.695312 187.039062 222.648438 181.417969 C 221.542969 179.226562 219.835938 177.328125 217.765625 175.984375 C 215.539062 174.550781 212.882812 173.6875 210.054688 173.6875 C 207.398438 173.6875 204.914062 174.414062 202.828125 175.691406 C 201.03125 176.742188 199.53125 178.15625 198.359375 179.8125 Z M 198.359375 179.8125 " fill-opacity="1" fill-rule="nonzero"/></g></svg>